<svg width="12" height="12" viewBox="0 0 12 12" fill="none" xmlns="http://www.w3.org/2000/svg">
<path d="M10.1552 6.16772C9.05642 8.07445 7.08506 9.61042 6.23672 10.1401C6.57067 11.0126 7.75833 11.7066 8.31042 11.9445C8.59051 12.0414 8.85802 11.9849 8.95677 11.9445C10.8096 10.8995 11.7576 9.41742 12 8.80698C11.9138 7.48196 10.7342 6.49539 10.1552 6.16772Z" fill="#8F8F8F"/>
<path d="M5.84623 9.83037C7.92532 8.71004 9.39666 6.66147 9.87244 5.77723C9.74317 4.87235 9.50438 3.73945 9.40114 3.28611C9.02411 1.77796 7.89749 1.36502 7.38131 1.34706C7.58599 2.40276 7.86158 2.85521 7.97379 2.94947C7.95225 3.31573 7.70448 3.23673 7.58329 3.15145C7.48455 3.08861 7.23319 2.7017 7.01774 1.65677C6.80229 0.611844 5.69811 0.135162 5.17296 0.0274363C4.17202 -0.120685 1.84157 0.259044 0.527334 2.96293C-0.786905 5.66682 0.66199 7.36617 1.55072 7.87786C2.63874 8.75043 4.86774 9.54311 5.84623 9.83037Z" fill="#8F8F8F"/>
</svg>
