<svg width="23" height="21" viewBox="0 0 23 21" fill="none" xmlns="http://www.w3.org/2000/svg">
<path d="M15.6558 18.8671C15.9575 18.6538 16.1653 18.3248 16.2333 17.9525C16.3013 17.5803 16.224 17.1952 16.0185 16.8821C15.813 16.5689 15.496 16.3534 15.1372 16.2828C14.7785 16.2122 14.4075 16.2923 14.1057 16.5057C12.8349 17.4022 11.3114 17.8317 9.77804 17.7255C8.2447 17.6194 6.78969 16.9837 5.64482 15.9199C4.49994 14.8561 3.73106 13.4252 3.46066 11.8553C3.19026 10.2854 3.4339 8.66677 4.15276 7.25723C4.87162 5.84768 6.02435 4.72834 7.42731 4.07751C8.83027 3.42669 10.4027 3.28183 11.8942 3.66601C13.3857 4.05019 14.7104 4.9413 15.6573 6.1974C16.6042 7.45349 17.1188 9.0023 17.1191 10.5971C17.1191 10.976 17.2641 11.3393 17.5223 11.6072C17.7804 11.8752 18.1306 12.0257 18.4957 12.0257C18.8608 12.0257 19.2109 11.8752 19.4691 11.6072C19.7272 11.3393 19.8722 10.976 19.8722 10.5971C19.8719 8.36425 19.1515 6.19576 17.8258 4.43711C16.5001 2.67846 14.6454 1.43085 12.5571 0.893044C10.4689 0.355238 8.26729 0.558185 6.30309 1.46955C4.33889 2.38091 2.72511 3.94825 1.71886 5.92186C0.712619 7.89547 0.371803 10.1618 0.750718 12.3597C1.12963 14.5577 2.20648 16.5608 3.80968 18.0499C5.41289 19.539 7.45021 20.4285 9.59706 20.5766C11.7439 20.7247 13.8767 20.1229 15.6558 18.8671V18.8671Z" fill="black"/>
<path d="M15.108 7.01598C14.9557 6.91486 14.7857 6.84586 14.6077 6.81293C14.4297 6.77999 14.2472 6.78376 14.0706 6.82402C13.894 6.86428 13.7268 6.94025 13.5785 7.04757C13.4302 7.1549 13.3037 7.29149 13.2063 7.44955C13.1089 7.6076 13.0424 7.78403 13.0106 7.96875C12.9789 8.15347 12.9825 8.34286 13.0213 8.52613C13.0601 8.70939 13.1333 8.88293 13.2367 9.03683C13.3402 9.19074 13.4718 9.322 13.6241 9.42312L18.4173 12.6045C18.7248 12.802 19.0949 12.866 19.4475 12.7827C19.8001 12.6993 20.1069 12.4754 20.3017 12.1592C20.4964 11.8429 20.5634 11.4599 20.4883 11.0928C20.4131 10.7257 20.2018 10.4041 19.8999 10.1974L15.108 7.01598V7.01598Z" fill="black"/>
<path d="M22.4911 7.15424C22.6317 6.80975 22.6364 6.42179 22.5042 6.07373C22.3721 5.72568 22.1137 5.44529 21.7845 5.29282C21.4553 5.14035 21.0817 5.12796 20.7438 5.25832C20.4059 5.38867 20.1308 5.65136 19.9775 5.98996L17.9016 10.8185C17.8238 10.9904 17.7798 11.1767 17.7722 11.3665C17.7646 11.5562 17.7935 11.7457 17.8573 11.9237C17.921 12.1017 18.0184 12.2648 18.1436 12.4033C18.2688 12.5418 18.4194 12.653 18.5865 12.7305C18.7536 12.8079 18.934 12.8499 19.1169 12.8541C19.2999 12.8584 19.4819 12.8247 19.6521 12.7551C19.8224 12.6855 19.9776 12.5813 20.1086 12.4487C20.2397 12.3161 20.3439 12.1577 20.4153 11.9828L22.4911 7.15424Z" fill="black"/>
</svg>
