<svg width="78" height="72" viewBox="0 0 78 72" fill="none" xmlns="http://www.w3.org/2000/svg">
<path d="M76.7913 16.4062C78.0403 18.1875 78.3213 20.2031 77.6344 22.4531L64.754 64.9219C64.1607 66.9219 62.9664 68.6016 61.1709 69.9609C59.3755 71.3203 57.463 72 55.4333 72H12.2022C9.79788 72 7.47942 71.1641 5.24683 69.4922C3.01424 67.8203 1.46079 65.7656 0.586488 63.3281C-0.162913 61.2344 -0.194139 59.25 0.492813 57.375C0.492813 57.25 0.539651 56.8281 0.633326 56.1094C0.727001 55.3906 0.789451 54.8125 0.820676 54.375C0.851902 54.125 0.805064 53.7891 0.680164 53.3672C0.555263 52.9453 0.508426 52.6406 0.539651 52.4531C0.602101 52.1094 0.727001 51.7812 0.914352 51.4688C1.1017 51.1562 1.35931 50.7891 1.68717 50.3672C2.01504 49.9453 2.27264 49.5781 2.45999 49.2656C3.17817 48.0781 3.88073 46.6484 4.56769 44.9766C5.25464 43.3047 5.72301 41.875 5.97281 40.6875C6.06649 40.375 6.0743 39.9062 5.99623 39.2812C5.91817 38.6562 5.91036 38.2188 5.97281 37.9688C6.06649 37.625 6.3319 37.1875 6.76905 36.6562C7.2062 36.125 7.47162 35.7656 7.56529 35.5781C8.22102 34.4531 8.87675 33.0156 9.53247 31.2656C10.1882 29.5156 10.5785 28.1094 10.7034 27.0469C10.7346 26.7656 10.6956 26.2656 10.5863 25.5469C10.477 24.8281 10.4848 24.3906 10.6097 24.2344C10.7346 23.8281 11.0781 23.3516 11.6402 22.8047C12.2022 22.2578 12.5457 21.9062 12.6706 21.75C13.2639 20.9375 13.9274 19.6172 14.6612 17.7891C15.395 15.9609 15.8243 14.4531 15.9492 13.2656C15.9804 13.0156 15.9336 12.6172 15.8087 12.0703C15.6838 11.5234 15.6526 11.1094 15.715 10.8281C15.7775 10.5781 15.918 10.2969 16.1366 9.98438C16.3552 9.67188 16.6362 9.3125 16.9797 8.90625C17.3231 8.5 17.5885 8.17188 17.7759 7.92188C18.0257 7.54688 18.2833 7.07031 18.5487 6.49219C18.8141 5.91406 19.0483 5.36719 19.2513 4.85156C19.4542 4.33594 19.704 3.77344 20.0007 3.16406C20.2973 2.55469 20.6018 2.05469 20.914 1.66406C21.2263 1.27344 21.64 0.90625 22.1552 0.5625C22.6704 0.21875 23.2325 0.0390625 23.8414 0.0234375C24.4503 0.0078125 25.1918 0.09375 26.0661 0.28125L26.0193 0.421875C27.2059 0.140625 28.0021 0 28.408 0H64.0515C66.3621 0 68.1419 0.875 69.3909 2.625C70.6399 4.375 70.921 6.40625 70.234 8.71875L57.4005 51.1875C56.2764 54.9062 55.1601 57.3047 54.0516 58.3828C52.9431 59.4609 50.9369 60 48.033 60H7.3311C6.48803 60 5.89475 60.2344 5.55128 60.7031C5.2078 61.2031 5.19219 61.875 5.50444 62.7188C6.25384 64.9062 8.50204 66 12.2491 66H55.4802C56.3857 66 57.26 65.7578 58.1031 65.2734C58.9462 64.7891 59.4926 64.1406 59.7424 63.3281L73.7937 17.0625C74.0123 16.375 74.0903 15.4844 74.0279 14.3906C75.2144 14.8594 76.1356 15.5312 76.7913 16.4062ZM26.9561 16.5C26.8312 16.9062 26.8624 17.2578 27.0497 17.5547C27.2371 17.8516 27.5493 18 27.9865 18H56.4638C56.8697 18 57.2678 17.8516 57.6581 17.5547C58.0484 17.2578 58.306 16.9062 58.4309 16.5L59.4145 13.5C59.5394 13.0938 59.5082 12.7422 59.3209 12.4453C59.1335 12.1484 58.8213 12 58.3841 12H29.9068C29.5009 12 29.1028 12.1484 28.7125 12.4453C28.3222 12.7422 28.0646 13.0938 27.9397 13.5L26.9561 16.5ZM23.0685 28.5C22.9436 28.9062 22.9749 29.2578 23.1622 29.5547C23.3496 29.8516 23.6618 30 24.099 30H52.5762C52.9822 30 53.3803 29.8516 53.7706 29.5547C54.1609 29.2578 54.4185 28.9062 54.5434 28.5L55.527 25.5C55.6519 25.0938 55.6207 24.7422 55.4333 24.4453C55.246 24.1484 54.9337 24 54.4966 24H26.0193C25.6134 24 25.2153 24.1484 24.825 24.4453C24.4346 24.7422 24.177 25.0938 24.0521 25.5L23.0685 28.5Z" fill="black"/>
</svg>
