<svg width="86" height="72" viewBox="0 0 86 72" fill="none" xmlns="http://www.w3.org/2000/svg">
<path d="M81.2897 17.5837C83.5843 18.877 85.1618 20.8888 85.7354 23.4754C86.4525 26.9242 85.7354 31.0914 83.2974 36.2646C81.2897 40.1444 78.8517 43.8806 77.1308 46.6109L77.1306 46.6112C76.557 47.4733 75.9835 48.3353 75.6967 48.9101C75.4098 49.1975 75.2664 49.4849 75.123 49.7723C74.406 51.0655 73.8323 52.0714 73.4021 53.221L12.7393 53.0773C12.4525 51.9277 11.8788 50.9218 11.0183 49.6286C10.7315 49.3412 10.5881 49.0538 10.4447 48.7664C10.1579 48.1916 9.58423 47.3294 9.01059 46.4672C7.14625 43.7369 4.70826 40.0007 2.84392 36.1209C0.262525 30.9477 -0.454529 26.7805 0.262525 23.4754C0.836169 21.0325 2.41369 18.877 4.70826 17.5837C5.71214 17.009 6.85943 16.7216 8.00671 16.5779C9.01059 16.4342 10.0145 16.5779 11.3052 16.8653C13.0261 17.2964 14.747 18.0148 16.3245 18.877C18.4757 19.8829 20.4835 20.8888 22.3478 20.8888L20.5444 27.3595C17.1026 27.3595 16.0377 26.062 13.4563 24.7687C10.7315 23.3317 9.01059 22.6132 8.00671 23.188C7.28966 23.6191 6.85943 24.1939 6.71602 24.9124C6.42919 25.6309 6.57261 26.7805 6.85943 28.2175C7.28966 29.6544 7.8633 31.2351 8.72377 33.1032C10.4447 36.6957 12.7393 40.1444 14.4602 42.731C15.0338 43.5932 15.6075 44.4554 16.0377 45.1739L16.468 46.0361C16.468 46.1798 16.6114 46.1798 16.6114 46.3235H69.6734C69.6734 46.1798 69.8168 46.1798 69.8168 46.0361L70.247 45.1739C70.6773 44.5991 71.2509 43.7369 71.8246 42.731C73.5455 40.1444 75.8401 36.6957 77.561 33.1032C78.4215 31.2351 79.1385 29.6544 79.4254 28.2175C79.7122 26.9242 79.7122 25.7746 79.5688 24.9124C79.4253 24.1939 78.9951 23.6191 78.2781 23.188C77.2742 22.6132 75.5533 23.4754 72.8284 24.7687C70.247 26.062 69.2318 27.3595 65.9333 27.3595L63.937 20.8888C65.8013 20.8888 67.8091 19.8829 69.9602 18.877C71.5377 18.1585 73.2587 17.2964 74.9796 16.8653C75.9835 16.5779 76.9874 16.4342 77.9912 16.5779C79.1385 16.7216 80.2858 17.009 81.2897 17.5837Z" fill="black"/>
<path d="M37.835 40.7192C37.835 42.8747 33.9629 48.3353 33.9629 48.3353C33.9629 48.3353 30.0908 42.8747 30.0908 40.7192C30.0908 38.5637 31.8118 36.8394 33.9629 36.8394C36.1141 36.8394 37.835 38.5637 37.835 40.7192Z" fill="black"/>
<path d="M55.7598 40.7192C55.7598 42.8747 51.8877 48.3353 51.8877 48.3353C51.8877 48.3353 48.0156 42.8747 48.0156 40.7192C48.0156 38.5637 49.7366 36.8394 51.8877 36.8394C54.0389 36.8394 55.7598 38.5637 55.7598 40.7192Z" fill="black"/>
<path d="M13.3779 69.1202C13.3779 67.5297 14.6674 66.2402 16.2579 66.2402H70.6979C72.2885 66.2402 73.5779 67.5297 73.5779 69.1202V69.1202C73.5779 70.7108 72.2885 72.0002 70.6979 72.0002H16.2579C14.6674 72.0002 13.3779 70.7108 13.3779 69.1202V69.1202Z" fill="black"/>
<path d="M20.0673 63.3602C22.1783 63.3602 23.8896 61.6409 23.8896 59.5202C23.8896 57.3994 22.1783 55.6802 20.0673 55.6802C17.9564 55.6802 16.2451 57.3994 16.2451 59.5202C16.2451 61.6409 17.9564 63.3602 20.0673 63.3602Z" fill="black"/>
<path d="M31.5332 63.3602C33.6441 63.3602 35.3554 61.6409 35.3554 59.5202C35.3554 57.3994 33.6441 55.6802 31.5332 55.6802C29.4222 55.6802 27.7109 57.3994 27.7109 59.5202C27.7109 61.6409 29.4222 63.3602 31.5332 63.3602Z" fill="black"/>
<path d="M43 63.3602C45.1109 63.3602 46.8222 61.6409 46.8222 59.5202C46.8222 57.3994 45.1109 55.6802 43 55.6802C40.889 55.6802 39.1777 57.3994 39.1777 59.5202C39.1777 61.6409 40.889 63.3602 43 63.3602Z" fill="black"/>
<path d="M54.4668 63.3602C56.5777 63.3602 58.289 61.6409 58.289 59.5202C58.289 57.3994 56.5777 55.6802 54.4668 55.6802C52.3558 55.6802 50.6445 57.3994 50.6445 59.5202C50.6445 61.6409 52.3558 63.3602 54.4668 63.3602Z" fill="black"/>
<path d="M65.9336 63.3602C68.0445 63.3602 69.7558 61.6409 69.7558 59.5202C69.7558 57.3994 68.0445 55.6802 65.9336 55.6802C63.8226 55.6802 62.1113 57.3994 62.1113 59.5202C62.1113 61.6409 63.8226 63.3602 65.9336 63.3602Z" fill="black"/>
<path d="M67.8084 15.5713C68.8123 16.8646 69.386 18.3016 69.8162 19.8823C70.8201 24.0496 70.2464 29.3664 68.0953 35.5455C66.3743 40.4312 64.2232 44.5985 63.0759 46.4666H55.4751L55.4751 46.4665C55.7619 45.8917 56.0488 45.317 56.479 44.7422C56.6224 44.4548 56.9092 44.1674 57.0526 43.88C60.0642 38.8505 65.227 27.9294 63.6495 21.6067C61.2574 16.5512 55.0783 9.87193 46.8224 23.0398L46.1534 46.6103H39.6999L39.178 23.0398C29.2755 10.2559 24.0054 16.7112 22.3472 21.6067C20.7697 27.9294 25.9325 38.9942 28.9441 43.88C29.0875 44.1674 29.3743 44.4548 29.5177 44.7422C29.8045 45.317 30.2348 45.8918 30.5216 46.4666H22.9208C21.9169 44.4548 19.6224 40.4312 17.9014 35.5455C15.6069 29.3664 15.0332 24.0496 16.0371 19.8823C16.4673 18.3016 17.1844 16.8646 18.0449 15.5713C19.0487 14.2781 20.3394 13.1285 21.7735 12.2663C25.5046 9.61737 34.7824 6.91163 42.0446 17.2798L43.0002 18.2398L43.9558 17.2798C51.9824 6.91175 60.7162 9.61743 64.0798 12.2663C65.6573 13.1285 66.8046 14.2781 67.8084 15.5713Z" fill="black"/>
<path d="M47.4226 3.2L42.9633 0C41.6892 0.853334 39.0137 2.688 38.504 3.2C37.9944 3.712 38.2917 4.26667 38.504 4.48L42.9633 11.52C44.2374 9.38668 46.9129 4.992 47.4226 4.48C47.9322 3.968 47.6349 3.41334 47.4226 3.2Z" fill="black"/>
</svg>
