<svg width="72" height="72" viewBox="0 0 72 72" fill="none" xmlns="http://www.w3.org/2000/svg">
<path d="M64.46 66.3001L62.3337 65.5489C62.3403 65.396 62.3282 65.2429 62.2977 65.0929C62.2977 65.0929 59.4153 63.4214 56.0398 64.1245C52.6642 64.8277 49.3607 66.7969 47.1803 66.0937C46.7015 65.9389 46.0992 65.5693 45.3828 65.0989C48.2279 64.2037 51.4655 63.8042 52.3126 62.297C53.5786 60.047 56.4262 59.8874 56.4262 59.8874C56.4262 59.6642 56.3926 59.477 56.341 59.3102L58.6041 58.8986C58.7241 58.877 58.7889 58.6502 58.7445 58.3946C58.7025 58.1391 58.5705 57.9519 58.4493 57.9747L55.7062 58.4846C55.2874 58.2243 54.8446 58.1955 54.8446 58.1955C51.3131 57.9687 52.1722 62.0162 47.5319 62.0162C45.7032 62.0162 44.5704 62.8514 43.3476 63.7586C41.5152 62.591 39.1921 61.3238 36.3493 60.7346C42.27 58.9538 49.7987 57.6387 55.357 54.3615C68.8735 46.3949 76.6758 34.3507 68.9335 20.6661C61.2021 6.9888 39.1501 -12.1004 30.4611 10.3259C26.8035 19.7662 23.5528 25.7613 21.0916 29.9984C22.732 26.6732 24.922 21.4653 26.0655 15.4678C13.0362 22.0365 13.3842 34.7887 14.205 40.2198C13.9503 40.3089 13.7048 40.4222 13.4718 40.5582L2.59517 46.9661C-1.00836 49.09 -0.837967 56.2911 2.97436 63.0338C5.99591 68.3737 10.3878 71.8224 13.8786 71.9796L13.863 72C13.9326 72 13.9986 71.9928 14.0682 71.9916C14.1678 71.9928 14.2638 71.9856 14.361 71.9808C19.2377 71.784 22.6816 68.8033 25.6311 68.4517C29.4375 67.9993 38.5873 70.1808 41.7912 66.9793C41.9767 66.796 42.1765 66.6279 42.3888 66.4765C44.3796 67.9441 46.3836 68.9413 49.1831 67.9969C53.437 66.5605 57.3742 65.4709 61.8741 66.8605C61.8741 66.8605 61.9941 66.7033 62.1105 66.4537L64.1312 67.1773C64.2464 67.2193 64.412 67.0549 64.5044 66.8137C64.5932 66.5701 64.574 66.3421 64.46 66.3001ZM44.0736 4.74124C47.6483 2.63408 59.2281 11.1959 64.4492 20.4298C69.6739 29.666 61.4001 31.4635 56.1754 22.2273C50.9555 12.9959 38.1865 8.21517 44.0736 4.74124ZM14.5241 68.0701C12.0726 69.5184 7.83547 66.7129 5.06232 61.805C2.28558 56.8935 2.02638 51.7444 4.47673 50.296C6.93069 48.8548 11.1666 51.6628 13.9446 56.5683C16.7177 61.4726 16.9781 66.6253 14.5241 68.0701ZM20.5876 66.9793C21.0052 63.4238 19.9792 58.8986 17.4977 54.5043C15.0689 50.2084 11.7006 46.9409 8.41026 45.4973L14.3298 42.0102C14.7621 41.7627 15.2537 41.6378 15.7517 41.649C18.2885 41.649 22.4296 44.4329 25.4367 49.7536C29.0259 56.1051 28.8399 62.1134 26.4267 63.533L20.5876 66.9793ZM34.1714 65.6629C31.5194 65.1301 28.8975 65.1565 26.5059 65.4505L30.5499 63.0662C31.2718 62.6505 32.0215 62.2852 32.7938 61.973C34.6778 62.1554 37.2829 62.6606 39.1873 64.0177C39.7693 64.4341 40.3237 64.8697 40.8649 65.2981C39.3481 65.9689 37.3357 66.3001 34.1714 65.6629Z" fill="black"/>
</svg>
