<svg width="72" height="72" viewBox="0 0 72 72" fill="none" xmlns="http://www.w3.org/2000/svg">
<path d="M59.3148 16.6272C64.7844 11.4684 58.4568 4.7772 46.4904 8.922C45.786 9.1668 45.1308 9.4248 44.5128 9.6924C45.6852 7.4412 47.4168 4.9836 50.0088 2.6304C50.0088 2.6304 45.168 4.3692 42.9312 3.9288C40.1568 3.3828 39.2868 0 39.2868 0C39.2868 0 36.4008 6.2856 34.9308 11.2188C32.826 6.9804 30.4944 2.856 30.4944 2.856C30.4944 2.856 29.25 5.7408 26.9712 6.8376C25.134 7.7256 17.5764 8.4912 17.5764 8.4912C20.0964 9.78 22.26 11.3724 24.096 13.02C22.1652 12.5088 19.9608 12.1248 17.4396 11.9424C7.4268 11.2164 3.4944 14.7888 4.8336 18.318L0 18.4728L2.6304 28.3356L4.2648 28.8C8.1432 41.9388 7.2048 56.5176 7.1928 56.682L7.1268 57.6324L8.0316 57.8988C22.5192 62.166 35.682 72 35.682 72C35.682 72 52.7484 60.7056 62.1324 57.8964L62.9532 57.6504L62.97 56.7864C62.9748 56.5824 63.3852 38.3856 68.0952 26.5248C68.4264 26.478 68.7384 26.4408 69.006 26.424L69.9984 26.364L70.098 25.3656C70.1016 25.326 70.5072 19.6104 72.0012 17.2788L59.3148 16.6272ZM3.1044 21.24L10.884 23.3508V28.2264L4.4268 26.3928L3.1044 21.24ZM15.1932 57.8544C13.3443 57.1366 11.4708 56.4842 9.576 55.8984C9.7296 52.512 9.9516 40.8396 6.8964 29.5464L12.5484 31.152C13.6428 35.9796 15.4596 45.9252 15.1932 57.8544ZM24.6648 15.6516C34.3776 16.3548 36.0852 21.3684 36.0852 21.3684C36.0852 21.3684 30.168 23.532 26.5116 23.532C14.5812 23.532 12.858 14.796 24.6648 15.6516ZM36.6504 22.1064L46.4016 23.2116L34.2456 26.1528L27.3024 24.6012L36.6504 22.1064ZM24.9756 26.4996L33.0876 28.3116V34.5324L24.7128 32.196L24.9756 26.4996ZM34.6248 68.424C32.8536 67.1088 29.9016 65.0796 25.9824 62.904C26.2932 57.1716 26.3304 41.8548 26.3316 35.0664L34.6248 37.422V68.424ZM45.48 63.1968C42.586 64.9086 39.7447 66.7078 36.96 68.592V36.348C40.2148 35.1535 43.4798 33.9867 46.7544 32.8476C46.05 39.6372 45.6096 57.3564 45.48 63.1968ZM49.416 29.7984C49.416 29.7984 37.7304 33.5484 35.4252 34.3992V28.296L49.5984 24.8664L49.416 29.7984ZM47.976 20.8452C42.5052 22.2468 36.6864 21.258 36.6864 21.258C36.6864 21.258 35.5956 15.9 44.4276 12.8412C55.1628 9.1224 59.4072 17.916 47.976 20.8452ZM56.0292 18.8064L62.9844 19.1976L58.8072 20.2092L53.8188 19.7172C54.6264 19.4364 55.3596 19.1292 56.0292 18.8064ZM60.6564 55.8864C58.92 56.454 57.0888 57.1968 55.2432 58.038C55.2564 52.4172 55.5996 39.9588 58.2036 29.064C60.8808 28.2384 63.3624 27.534 65.388 27.0576C61.5156 37.8408 60.7824 52.2096 60.6564 55.8864ZM67.902 24.1692C67.902 24.1692 64.0608 25.2948 61.608 25.9716L62.2248 21.81L68.9028 20.1948C68.3556 21.7008 67.902 24.1692 67.902 24.1692Z" fill="black"/>
</svg>
