<svg width="18" height="24" viewBox="0 0 18 24" fill="none" xmlns="http://www.w3.org/2000/svg">
<path d="M17.6052 0.280336C17.4636 0.162076 17.2965 0.0778591 17.1169 0.0342109C16.9373 -0.0094372 16.7501 -0.0113447 16.5696 0.0286366L6.93612 2.42577C6.66894 2.4914 6.4324 2.64612 6.26589 2.8642C6.09937 3.08228 6.01293 3.35055 6.02094 3.62434V16.0295C5.4583 15.756 4.84082 15.6126 4.21466 15.61C3.38108 15.61 2.56622 15.8561 1.87312 16.317C1.18002 16.778 0.639821 17.4331 0.320824 18.1997C0.00182614 18.9662 -0.0816381 19.8097 0.0809853 20.6234C0.243609 21.4372 0.645016 22.1846 1.23445 22.7713C1.82388 23.358 2.57486 23.7575 3.39242 23.9194C4.20998 24.0813 5.05741 23.9982 5.82754 23.6807C6.59767 23.3632 7.25591 22.8255 7.71902 22.1356C8.18213 21.4458 8.42932 20.6347 8.42932 19.805V10.5521L17.1476 8.41861H17.2319L17.4607 8.23883L17.6414 8.11897C17.6998 8.06477 17.7523 8.0045 17.7979 7.93919C17.8449 7.88409 17.8853 7.82376 17.9183 7.7594C17.9548 7.6922 17.9792 7.6192 17.9906 7.54366C18.0031 7.46827 18.0031 7.39132 17.9906 7.31593C17.996 7.28419 17.996 7.25178 17.9906 7.22005V1.2272C18.0004 1.05087 17.9709 0.874549 17.9043 0.71086C17.8377 0.547172 17.7356 0.400158 17.6052 0.280336V0.280336ZM4.21466 21.6029C3.85741 21.6029 3.50818 21.4974 3.21114 21.2999C2.9141 21.1023 2.68259 20.8215 2.54587 20.493C2.40916 20.1645 2.37339 19.803 2.44308 19.4543C2.51278 19.1055 2.68481 18.7852 2.93742 18.5337C3.19004 18.2823 3.51189 18.1111 3.86227 18.0417C4.21266 17.9723 4.57584 18.0079 4.90589 18.144C5.23595 18.2801 5.51805 18.5105 5.71653 18.8062C5.915 19.1018 6.02094 19.4494 6.02094 19.805C6.02094 20.2818 5.83064 20.7391 5.49189 21.0763C5.15315 21.4134 4.69371 21.6029 4.21466 21.6029ZM15.6544 6.28516L8.42932 8.08301V4.55922L15.6544 2.76137V6.28516Z" fill="black"/>
</svg>
