<svg width="26" height="24" viewBox="0 0 26 24" fill="none" xmlns="http://www.w3.org/2000/svg">
<path d="M20.4221 7.17275C20.2247 6.89714 19.9382 6.72125 19.6257 6.68377C19.3131 6.64629 19.0002 6.7503 18.7558 6.9729C18.5113 7.19551 18.3552 7.51849 18.322 7.87078C18.2888 8.22307 18.381 8.57583 18.5785 8.85144C19.1756 9.7666 19.4976 10.8729 19.4976 12.009C19.4976 13.145 19.1756 14.2513 18.5785 15.1665C18.4376 15.3623 18.3489 15.5991 18.3226 15.8495C18.2964 16.0999 18.3337 16.3535 18.4302 16.5809C18.5268 16.8084 18.6786 17.0002 18.868 17.1343C19.0574 17.2683 19.2767 17.339 19.5003 17.3381C19.6769 17.3388 19.8513 17.2949 20.0108 17.2096C20.1703 17.1243 20.3109 16.9998 20.4221 16.8452C21.3595 15.4544 21.8671 13.7557 21.8671 12.009C21.8671 10.2622 21.3595 8.56355 20.4221 7.17275V7.17275Z" fill="black"/>
<path d="M22.0291 2.98963C21.9096 2.87766 21.7717 2.79331 21.6233 2.74142C21.4749 2.68952 21.3188 2.67109 21.1641 2.68717C21.0094 2.70325 20.8589 2.75354 20.7214 2.83515C20.5839 2.91676 20.4621 3.02811 20.3627 3.16283C20.2634 3.29755 20.1886 3.453 20.1425 3.62031C20.0965 3.78763 20.0802 3.96353 20.0944 4.13796C20.1087 4.3124 20.1533 4.48196 20.2257 4.63697C20.2981 4.79197 20.3969 4.92939 20.5164 5.04136C21.4642 5.86721 22.2363 6.9215 22.7761 8.1271C23.316 9.33269 23.6099 10.6591 23.6364 12.0092C23.6099 13.3594 23.316 14.6858 22.7761 15.8914C22.2363 17.097 21.4642 18.1513 20.5164 18.9771C20.3967 19.089 20.2978 19.2263 20.2253 19.3813C20.1528 19.5364 20.1081 19.706 20.0938 19.8805C20.0795 20.055 20.096 20.2309 20.1421 20.3983C20.1882 20.5656 20.2632 20.721 20.3627 20.8557C20.4738 21.0061 20.613 21.127 20.7703 21.2099C20.9276 21.2928 21.0991 21.3356 21.2727 21.3353C21.5489 21.3359 21.8165 21.2275 22.0291 21.0289C23.2469 19.9556 24.2358 18.5882 24.923 17.0273C25.6101 15.4664 25.9782 13.7517 26 12.0092C25.9782 10.2668 25.6101 8.5521 24.923 6.99119C24.2358 5.43027 23.2469 4.06289 22.0291 2.98963V2.98963ZM15.9191 0.178493C15.7394 0.0615602 15.5356 0 15.3282 0C15.1207 0 14.9169 0.0615602 14.7373 0.178493L7.09091 6.10719H1.18182C0.86838 6.10719 0.56778 6.24756 0.346146 6.49741C0.124513 6.74727 0 7.08614 0 7.43948V16.579C0 16.9324 0.124513 17.2712 0.346146 17.5211C0.56778 17.7709 0.86838 17.9113 1.18182 17.9113H7.09091L14.6664 23.7734C14.8739 23.9248 15.1165 24.0036 15.3636 23.9999C15.6771 23.9999 15.9777 23.8595 16.1993 23.6097C16.4209 23.3598 16.5455 23.0209 16.5455 22.6676V1.35091C16.5449 1.10989 16.4863 0.873565 16.376 0.667101C16.2657 0.460637 16.1078 0.291771 15.9191 0.178493Z" fill="black"/>
</svg>
