<svg width="24" height="24" viewBox="0 0 24 24" fill="none" xmlns="http://www.w3.org/2000/svg">
<path fill-rule="evenodd" clip-rule="evenodd" d="M19.3327 22.667C20.2167 22.667 21.0646 22.3158 21.6897 21.6907C22.3148 21.0656 22.666 20.2177 22.666 19.3337C22.666 18.4496 22.3148 17.6018 21.6897 16.9766C21.0646 16.3515 20.2167 16.0003 19.3327 16.0003C18.4486 16.0003 17.6008 16.3515 16.9757 16.9766C16.3505 17.6018 15.9993 18.4496 15.9993 19.3337C15.9993 20.2177 16.3505 21.0656 16.9757 21.6907C17.6008 22.3158 18.4486 22.667 19.3327 22.667ZM19.3327 24.0003C20.5704 24.0003 21.7573 23.5087 22.6325 22.6335C23.5077 21.7583 23.9993 20.5713 23.9993 19.3337C23.9993 18.096 23.5077 16.909 22.6325 16.0338C21.7573 15.1587 20.5704 14.667 19.3327 14.667C18.095 14.667 16.908 15.1587 16.0329 16.0338C15.1577 16.909 14.666 18.096 14.666 19.3337C14.666 20.5713 15.1577 21.7583 16.0329 22.6335C16.908 23.5087 18.095 24.0003 19.3327 24.0003V24.0003Z" fill="black"/>
<path fill-rule="evenodd" clip-rule="evenodd" d="M19.3327 17C19.5095 17 19.6791 17.0702 19.8041 17.1953C19.9291 17.3203 19.9993 17.4899 19.9993 17.6667V19.0573L20.4707 19.5287C20.5921 19.6544 20.6593 19.8228 20.6578 19.9976C20.6563 20.1724 20.5862 20.3396 20.4626 20.4632C20.339 20.5868 20.1717 20.6569 19.997 20.6584C19.8222 20.66 19.6537 20.5928 19.528 20.4713L18.666 19.6093V17.6667C18.666 17.4899 18.7363 17.3203 18.8613 17.1953C18.9863 17.0702 19.1559 17 19.3327 17Z" fill="black"/>
<path fill-rule="evenodd" clip-rule="evenodd" d="M5.33268 11.3333H3.99935V12.6667H5.33268V11.3333ZM3.99935 10C3.64573 10 3.30659 10.1405 3.05654 10.3905C2.80649 10.6406 2.66602 10.9797 2.66602 11.3333V12.6667C2.66602 13.0203 2.80649 13.3594 3.05654 13.6095C3.30659 13.8595 3.64573 14 3.99935 14H5.33268C5.6863 14 6.02544 13.8595 6.27549 13.6095C6.52554 13.3594 6.66602 13.0203 6.66602 12.6667V11.3333C6.66602 10.9797 6.52554 10.6406 6.27549 10.3905C6.02544 10.1405 5.6863 10 5.33268 10H3.99935Z" fill="black"/>
<path fill-rule="evenodd" clip-rule="evenodd" d="M10.6667 11.3333H9.33333V12.6667H10.6667V11.3333ZM9.33333 10C8.97971 10 8.64057 10.1405 8.39052 10.3905C8.14048 10.6406 8 10.9797 8 11.3333V12.6667C8 13.0203 8.14048 13.3594 8.39052 13.6095C8.64057 13.8595 8.97971 14 9.33333 14H10.6667C11.0203 14 11.3594 13.8595 11.6095 13.6095C11.8595 13.3594 12 13.0203 12 12.6667V11.3333C12 10.9797 11.8595 10.6406 11.6095 10.3905C11.3594 10.1405 11.0203 10 10.6667 10H9.33333Z" fill="black"/>
<path fill-rule="evenodd" clip-rule="evenodd" d="M15.9987 11.3333H14.6654V12.6667H15.9987V11.3333ZM14.6654 10C14.3117 10 13.9726 10.1405 13.7226 10.3905C13.4725 10.6406 13.332 10.9797 13.332 11.3333V12.6667C13.332 13.0203 13.4725 13.3594 13.7226 13.6095C13.9726 13.8595 14.3117 14 14.6654 14H15.9987C16.3523 14 16.6915 13.8595 16.9415 13.6095C17.1916 13.3594 17.332 13.0203 17.332 12.6667V11.3333C17.332 10.9797 17.1916 10.6406 16.9415 10.3905C16.6915 10.1405 16.3523 10 15.9987 10H14.6654Z" fill="black"/>
<path fill-rule="evenodd" clip-rule="evenodd" d="M5.33268 16.6663H3.99935V17.9997H5.33268V16.6663ZM3.99935 15.333C3.64573 15.333 3.30659 15.4735 3.05654 15.7235C2.80649 15.9736 2.66602 16.3127 2.66602 16.6663V17.9997C2.66602 18.3533 2.80649 18.6924 3.05654 18.9425C3.30659 19.1925 3.64573 19.333 3.99935 19.333H5.33268C5.6863 19.333 6.02544 19.1925 6.27549 18.9425C6.52554 18.6924 6.66602 18.3533 6.66602 17.9997V16.6663C6.66602 16.3127 6.52554 15.9736 6.27549 15.7235C6.02544 15.4735 5.6863 15.333 5.33268 15.333H3.99935Z" fill="black"/>
<path fill-rule="evenodd" clip-rule="evenodd" d="M10.6667 16.6663H9.33333V17.9997H10.6667V16.6663ZM9.33333 15.333C8.97971 15.333 8.64057 15.4735 8.39052 15.7235C8.14048 15.9736 8 16.3127 8 16.6663V17.9997C8 18.3533 8.14048 18.6924 8.39052 18.9425C8.64057 19.1925 8.97971 19.333 9.33333 19.333H10.6667C11.0203 19.333 11.3594 19.1925 11.6095 18.9425C11.8595 18.6924 12 18.3533 12 17.9997V16.6663C12 16.3127 11.8595 15.9736 11.6095 15.7235C11.3594 15.4735 11.0203 15.333 10.6667 15.333H9.33333Z" fill="black"/>
<path fill-rule="evenodd" clip-rule="evenodd" d="M1.33333 4C1.33333 3.82319 1.40357 3.65362 1.5286 3.5286C1.65362 3.40357 1.82319 3.33333 2 3.33333H5.33333V2H2C1.46957 2 0.960859 2.21071 0.585787 2.58579C0.210714 2.96086 0 3.46957 0 4V20C0 20.5304 0.210714 21.0391 0.585787 21.4142C0.960859 21.7893 1.46957 22 2 22H15.5033C15.219 21.5928 15.0018 21.1426 14.86 20.6667H2C1.82319 20.6667 1.65362 20.5964 1.5286 20.4714C1.40357 20.3464 1.33333 20.1768 1.33333 20V4ZM18.6667 14.7133C19.1089 14.6501 19.5578 14.6501 20 14.7133V4C20 3.46957 19.7893 2.96086 19.4142 2.58579C19.0391 2.21071 18.5304 2 18 2H16V3.33333H18C18.1768 3.33333 18.3464 3.40357 18.4714 3.5286C18.5964 3.65362 18.6667 3.82319 18.6667 4V14.7133ZM6.66667 3.33333H13.7087V2H6.66667V3.33333Z" fill="black"/>
<path fill-rule="evenodd" clip-rule="evenodd" d="M14.666 2H6.66602V4C6.66602 4.17681 6.59578 4.34638 6.47075 4.4714C6.34573 4.59643 6.17616 4.66667 5.99935 4.66667C5.82254 4.66667 5.65297 4.59643 5.52794 4.4714C5.40292 4.34638 5.33268 4.17681 5.33268 4V2H1.99935C1.64573 2 1.30659 2.14048 1.05654 2.39052C0.806491 2.64057 0.666016 2.97971 0.666016 3.33333V6.66667C0.666016 7.02029 0.806491 7.35943 1.05654 7.60948C1.30659 7.85952 1.64573 8 1.99935 8H17.9993C18.353 8 18.6921 7.85952 18.9422 7.60948C19.1922 7.35943 19.3327 7.02029 19.3327 6.66667V3.33333C19.3327 2.97971 19.1922 2.64057 18.9422 2.39052C18.6921 2.14048 18.353 2 17.9993 2H15.9993V4C15.9993 4.17681 15.9291 4.34638 15.8041 4.4714C15.6791 4.59643 15.5095 4.66667 15.3327 4.66667C15.1559 4.66667 14.9863 4.59643 14.8613 4.4714C14.7363 4.34638 14.666 4.17681 14.666 4V2Z" fill="black"/>
<path fill-rule="evenodd" clip-rule="evenodd" d="M19.9987 7.99984H1.33203V6.6665H19.9987V7.99984Z" fill="black"/>
<path d="M4 0.666667C4 0.489856 4.07024 0.320287 4.19526 0.195262C4.32029 0.070238 4.48986 0 4.66667 0C4.84348 0 5.01305 0.070238 5.13807 0.195262C5.2631 0.320287 5.33333 0.489856 5.33333 0.666667V3.33333C5.33333 3.51014 5.2631 3.67971 5.13807 3.80474C5.01305 3.92976 4.84348 4 4.66667 4C4.48986 4 4.32029 3.92976 4.19526 3.80474C4.07024 3.67971 4 3.51014 4 3.33333V0.666667Z" fill="black"/>
<path d="M13.332 0.666667C13.332 0.489856 13.4023 0.320287 13.5273 0.195262C13.6523 0.070238 13.8219 0 13.9987 0C14.1755 0 14.3451 0.070238 14.4701 0.195262C14.5951 0.320287 14.6654 0.489856 14.6654 0.666667V3.33333C14.6654 3.51014 14.5951 3.67971 14.4701 3.80474C14.3451 3.92976 14.1755 4 13.9987 4C13.8219 4 13.6523 3.92976 13.5273 3.80474C13.4023 3.67971 13.332 3.51014 13.332 3.33333V0.666667Z" fill="black"/>
</svg>
