<svg width="40" height="40" viewBox="0 0 40 40" fill="none" xmlns="http://www.w3.org/2000/svg">
<path d="M32.7069 34.2635C32.1484 34.2635 31.5898 34.0549 31.1636 33.6363C30.3112 32.7992 30.3112 31.4435 31.1636 30.6063C37.1186 24.7578 37.1186 15.2422 31.1636 9.39363C30.3112 8.55649 30.3112 7.19935 31.1636 6.36365C32.016 5.52794 33.3978 5.52651 34.2487 6.36365C37.9579 10.0065 40.0001 14.8493 40.0001 20.0007C40.0001 25.1521 37.9579 29.9949 34.2487 33.6377C33.8226 34.0563 33.264 34.2649 32.7055 34.2649L32.7069 34.2635ZM24.957 30.2235C24.3984 30.2235 23.8399 30.0149 23.4137 29.5963C22.5613 28.7592 22.5613 27.4035 23.4137 26.5664C27.0996 22.9464 27.0996 17.055 23.4137 13.435C22.5613 12.5979 22.5613 11.2408 23.4137 10.405C24.2661 9.56934 25.6464 9.56791 26.4988 10.405C31.8865 15.6964 31.8865 24.3064 26.4988 29.5978C26.0726 30.0163 25.5141 30.2249 24.9555 30.2249L24.957 30.2235Z" fill="black"/>
<path d="M18.9093 40C18.5312 40 18.1588 39.8543 17.881 39.5814L6.67063 28.5715H1.45456C0.651645 28.5715 0 27.9315 0 27.1429V12.8573C0 12.0688 0.651645 11.4288 1.45456 11.4288H6.67063L17.881 0.418839C18.297 0.0102703 18.9224 -0.112586 19.4664 0.108841C20.0104 0.330268 20.3639 0.850265 20.3639 1.42883V38.5714C20.3639 39.1486 20.009 39.67 19.4664 39.8914C19.2861 39.9643 19.097 40 18.9093 40Z" fill="black"/>
</svg>
