<svg width="40" height="40" viewBox="0 0 40 40" fill="none" xmlns="http://www.w3.org/2000/svg">
<path d="M34.5637 7.24965L34.5839 7.22934L34.5801 7.22547C34.7021 7.09313 34.7686 6.91845 34.7657 6.73793C34.7627 6.55742 34.6905 6.38503 34.5642 6.25682L33.5775 5.26399C33.4501 5.13688 33.2787 5.06425 33.0993 5.06128C32.9199 5.05831 32.7463 5.12522 32.6148 5.24803L32.6105 5.24367L28.3609 9.52015C28.23 9.65183 28.1566 9.83038 28.1566 10.0166C28.1566 10.2027 28.23 10.3813 28.3609 10.513L29.3476 11.5063C29.4784 11.6379 29.6564 11.7119 29.8414 11.7119C30.0264 11.7119 30.2039 11.6379 30.3348 11.5063L34.5637 7.24965ZM19.3021 7.42326L20.6974 7.42374C21.0732 7.42374 21.3775 7.12391 21.3924 6.7496H21.3952V0.703154C21.3952 0.315307 21.0828 0.000967245 20.6974 0.000967245V0H19.3021C18.9167 0 18.6043 0.314823 18.6043 0.702671V6.7496H18.6072C18.6141 6.93047 18.6904 7.10161 18.8199 7.22718C18.9494 7.35275 19.1223 7.42302 19.3021 7.42326ZM40 17.4449C40 17.0662 39.7025 16.7606 39.3305 16.7456V16.7427H33.3208C32.9354 16.7427 32.623 17.0566 32.623 17.4449V18.8488C32.623 19.2371 32.9354 19.5515 33.3208 19.5515H39.3305V19.5486C39.5103 19.5414 39.6804 19.4646 39.8052 19.3342C39.93 19.2038 39.9998 19.0298 40 18.8488V17.4449ZM20 9.80596C14.3498 9.80596 9.77002 14.4142 9.77002 20.0994C9.76903 22.2413 10.4361 24.3296 11.6771 26.0699H11.6733C13.1988 28.4647 14.1518 31.6371 14.222 35.1321C14.3446 35.3347 14.5637 35.4721 14.8165 35.4721C14.8434 35.4721 14.8689 35.4672 14.8949 35.4638V35.4721H25.0705V35.4638C25.0965 35.4667 25.122 35.4721 25.1484 35.4721C25.2794 35.4717 25.4076 35.4342 25.5183 35.3639C25.6291 35.2936 25.7179 35.1933 25.7746 35.0745C25.8587 31.4069 26.9142 28.0967 28.5829 25.6738C29.6181 24.0664 30.23 22.1581 30.23 20.0999C30.23 14.4142 25.6502 9.80596 20 9.80596ZM25.1484 36.9586C25.1215 36.9586 25.0965 36.9635 25.0705 36.9669V36.9586H14.8949V36.9669C14.8689 36.964 14.8434 36.9586 14.8165 36.9586C14.6358 36.9589 14.4622 37.0298 14.3325 37.1564C14.2027 37.283 14.1269 37.4554 14.1211 37.6371L14.1187 37.6647V39.2973C14.1187 39.6852 14.4311 39.9995 14.8165 39.9995C14.8434 39.9995 14.8689 39.9947 14.8949 39.9913V39.9995H25.0705V39.9918C25.0965 39.9947 25.122 40 25.1484 40C25.5338 40 25.8463 39.6857 25.8463 39.2978V37.6608C25.8463 37.2725 25.5338 36.9586 25.1484 36.9586ZM6.708 17.294V17.2911H0.697859C0.312402 17.2911 0 17.6055 0 17.9928V19.3972C0 19.7846 0.312402 20.0989 0.697859 20.0989H6.708V20.0965C6.88762 20.0894 7.05757 20.0127 7.18233 19.8825C7.3071 19.7523 7.37702 19.5786 7.3775 19.3977V17.9928C7.37702 17.8119 7.3071 17.6382 7.18233 17.508C7.05757 17.3778 6.88762 17.3011 6.708 17.294ZM5.67707 7.00785L9.92671 11.2843L9.93103 11.28C10.2045 11.5329 10.6279 11.531 10.8932 11.264L11.8804 10.2707C12.0069 10.1425 12.0791 9.97013 12.0821 9.78958C12.085 9.60903 12.0184 9.43433 11.8963 9.30204L11.9006 9.29769L7.65049 5.0217C7.51957 4.8902 7.34213 4.81634 7.15714 4.81634C6.97215 4.81634 6.79471 4.8902 6.66378 5.0217L5.67707 6.01453C5.54623 6.14629 5.47274 6.32493 5.47274 6.51119C5.47274 6.69745 5.54623 6.87609 5.67707 7.00785Z" fill="black"/>
</svg>
