<svg width="36" height="36" viewBox="0 0 36 36" fill="none" xmlns="http://www.w3.org/2000/svg">
<path d="M27.5192 0.0185369C27.2091 0.0518626 26.9193 0.18889 26.6968 0.407413L18 9.10109L13.4571 4.55774C13.3262 4.42698 13.1708 4.32327 12.9997 4.25254C12.8287 4.18181 12.6454 4.14544 12.4604 4.1455C12.2753 4.14556 12.092 4.18206 11.9211 4.25291C11.7501 4.32376 11.5948 4.42758 11.4639 4.55843C11.1997 4.82269 11.0513 5.18104 11.0515 5.55464C11.0515 5.73962 11.0881 5.92278 11.1589 6.09366C11.2298 6.26454 11.3337 6.4198 11.4646 6.55056L16.0089 11.0898H4.15385C3.05218 11.0898 1.99563 11.5272 1.21663 12.3058C0.437636 13.0844 0 14.1404 0 15.2415L0 31.8483C0 32.9494 0.437636 34.0054 1.21663 34.784C1.99563 35.5626 3.05218 36 4.15385 36H31.8462C32.9478 36 34.0044 35.5626 34.7834 34.784C35.5624 34.0054 36 32.9494 36 31.8483V15.2415C36 14.1404 35.5624 13.0844 34.7834 12.3058C34.0044 11.5272 32.9478 11.0898 31.8462 11.0898H19.9897L28.6878 2.39746C28.9057 2.195 29.0526 1.92777 29.1067 1.63535C29.1607 1.34294 29.1191 1.0409 28.988 0.773981C28.8569 0.507058 28.6432 0.289446 28.3787 0.15338C28.1141 0.0173141 27.8128 -0.0299682 27.5192 0.0185369ZM14.5385 13.8576C24.8469 13.8576 26.3077 13.8866 26.3077 23.5449C26.3077 33.2045 24.7458 33.2322 14.5385 33.2322C4.284 33.2322 2.76923 33.1298 2.76923 23.5449C2.76923 13.9627 4.284 13.8576 14.5385 13.8576ZM31.1538 17.9235C32.3529 17.9235 33.318 18.8867 33.318 20.0851C33.318 21.2836 32.3529 22.2482 31.1538 22.2482C30.8694 22.2489 30.5877 22.1934 30.3248 22.085C30.0619 21.9766 29.823 21.8173 29.6219 21.6162C29.4208 21.4152 29.2614 21.1765 29.1529 20.9137C29.0444 20.651 28.989 20.3694 28.9897 20.0851C28.9897 18.8867 29.9548 17.9221 31.1538 17.9221V17.9235ZM31.1538 23.4591C32.3529 23.4591 33.318 24.4223 33.318 25.6207C33.318 26.8192 32.3529 27.7838 31.1538 27.7838C30.8694 27.7845 30.5877 27.7291 30.3248 27.6206C30.0619 27.5122 29.823 27.3529 29.6219 27.1519C29.4208 26.9509 29.2614 26.7121 29.1529 26.4494C29.0444 26.1866 28.989 25.905 28.9897 25.6207C28.9897 24.4223 29.9548 23.4577 31.1538 23.4577V23.4591Z" fill="black"/>
</svg>
