<svg width="24" height="24" viewBox="0 0 24 24" fill="none" xmlns="http://www.w3.org/2000/svg">
<path d="M11.9374 6.41992C12.2571 6.41992 12.5638 6.29372 12.7899 6.06907C13.0159 5.84442 13.143 5.53973 13.143 5.22203V4.56318L20.3763 2.76634V6.28815L15.1924 7.58188C14.8727 7.62001 14.5813 7.78278 14.3823 8.03438C14.1834 8.28599 14.0931 8.60582 14.1315 8.92353C14.1699 9.24123 14.3337 9.53077 14.5869 9.72846C14.8401 9.92615 15.162 10.0158 15.4817 9.97767H15.7711L21.8712 8.42041H21.9556L22.1847 8.3126L22.3655 8.19281C22.424 8.13864 22.4766 8.0784 22.5222 8.01312C22.5693 7.95806 22.6097 7.89776 22.6428 7.83344C22.6793 7.76627 22.7038 7.69331 22.7151 7.61782C22.7263 7.54236 22.7263 7.46568 22.7151 7.39022C22.7569 7.3436 22.7823 7.28474 22.7874 7.22251V1.23303C22.7929 1.04832 22.7553 0.864865 22.6775 0.697006C22.5998 0.529147 22.484 0.38144 22.3392 0.265438C22.1944 0.149436 22.0246 0.0682853 21.8431 0.0283329C21.6615 -0.0116196 21.4731 -0.00929032 21.2926 0.0351386L11.6481 2.43093C11.3806 2.49652 11.1438 2.65116 10.9771 2.86911C10.8104 3.08707 10.7238 3.35518 10.7318 3.62883V5.22203C10.7318 5.53973 10.8588 5.84442 11.0849 6.06907C11.311 6.29372 11.6177 6.41992 11.9374 6.41992ZM23.6434 21.9926L12.7933 11.2115L1.94329 0.430444C1.71365 0.253902 1.4276 0.165639 1.13772 0.181874C0.847834 0.19811 0.573584 0.317754 0.365367 0.518819C0.15715 0.719884 0.0289553 0.988861 0.0043417 1.27632C-0.0202719 1.56378 0.0603488 1.85041 0.231389 2.08354L10.7318 12.5052V16.027C10.1686 15.7537 9.55037 15.6103 8.92349 15.6078C8.08896 15.6078 7.27317 15.8537 6.57928 16.3144C5.88539 16.7751 5.34457 17.4299 5.02521 18.196C4.70585 18.9621 4.62229 19.8051 4.7851 20.6184C4.94791 21.4317 5.34977 22.1787 5.93988 22.7651C6.52998 23.3514 7.28182 23.7507 8.10031 23.9125C8.91881 24.0743 9.7672 23.9912 10.5382 23.6739C11.3092 23.3566 11.9682 22.8192 12.4318 22.1297C12.8955 21.4402 13.143 20.6296 13.143 19.8004V14.901L21.9315 23.6457C22.0436 23.7579 22.1769 23.8471 22.3238 23.9079C22.4707 23.9687 22.6283 24 22.7874 24C22.9466 24 23.1042 23.9687 23.2511 23.9079C23.398 23.8471 23.5313 23.7579 23.6434 23.6457C23.7564 23.5343 23.8461 23.4018 23.9073 23.2558C23.9685 23.1099 24 22.9533 24 22.7952C24 22.637 23.9685 22.4804 23.9073 22.3345C23.8461 22.1885 23.7564 22.056 23.6434 21.9447V21.9926ZM8.92349 21.5973C8.56583 21.5973 8.21621 21.4919 7.91883 21.2944C7.62145 21.097 7.38967 20.8164 7.2528 20.488C7.11593 20.1597 7.08012 19.7984 7.14989 19.4499C7.21967 19.1013 7.3919 18.7812 7.6448 18.5299C7.8977 18.2786 8.21991 18.1074 8.5707 18.0381C8.92148 17.9688 9.28508 18.0044 9.61551 18.1404C9.94594 18.2764 10.2284 18.5067 10.4271 18.8021C10.6258 19.0976 10.7318 19.445 10.7318 19.8004C10.7318 20.277 10.5413 20.734 10.2022 21.071C9.86305 21.408 9.40309 21.5973 8.92349 21.5973Z" fill="black"/>
</svg>
