<svg width="24" height="24" viewBox="0 0 24 24" fill="none" xmlns="http://www.w3.org/2000/svg">
<path d="M2.2842 1.33668C2.15995 1.2174 2.01244 1.12278 1.8501 1.05823C1.68776 0.993674 1.51377 0.960449 1.33805 0.960449C1.16234 0.960449 0.988343 0.993674 0.826003 1.05823C0.663663 1.12278 0.516157 1.2174 0.391907 1.33668C0.140973 1.57757 0 1.90429 0 2.24497C0 2.58564 0.140973 2.91237 0.391907 3.15326L21.7135 23.6218C21.8374 23.7417 21.9848 23.8369 22.1472 23.9018C22.3096 23.9668 22.4838 24.0002 22.6597 24.0002C22.8356 24.0002 23.0098 23.9668 23.1722 23.9018C23.3345 23.8369 23.4819 23.7417 23.6058 23.6218C23.7307 23.5029 23.8299 23.3614 23.8975 23.2055C23.9652 23.0496 24 22.8824 24 22.7135C24 22.5446 23.9652 22.3774 23.8975 22.2215C23.8299 22.0657 23.7307 21.9242 23.6058 21.8052L2.2842 1.33668Z" fill="black"/>
<path d="M16.3322 0C16.5397 0 16.7435 0.0591113 16.9232 0.171393C17.112 0.280164 17.2699 0.442312 17.3803 0.640563C17.4906 0.838814 17.5492 1.06574 17.5497 1.29717V14.4033L8.39453 5.63977L15.7411 0.171393C15.9208 0.0591113 16.1247 0 16.3322 0Z" fill="black"/>
<path d="M1 7.14316C1 6.80387 1.12454 6.47848 1.34623 6.23856C1.44588 6.13071 1.5615 6.04411 1.68707 5.98145L17.5494 21.2032V21.7655C17.5494 22.1048 17.4249 22.4302 17.2032 22.6701C16.9815 22.91 16.6808 23.0448 16.3673 23.0448C16.1201 23.0483 15.8774 22.9727 15.6699 22.8273L8.0926 17.1984H2.1821C1.86859 17.1984 1.56792 17.0636 1.34623 16.8237C1.12454 16.5838 1 16.2584 1 15.9191V7.14316Z" fill="black"/>
</svg>
